<?xml version="1.0" encoding="UTF-8"?>
<svg width="1440px" height="151px" viewBox="0 0 1440 151" version="1.1" xmlns="http://www.w3.org/2000/svg" xmlns:xlink="http://www.w3.org/1999/xlink">
    <!-- Generator: Sketch 64 (93537) - https://sketch.com -->
    <title>Page 1</title>
    <desc>Created with Sketch.</desc>
    <g id="Page-1" stroke="none" stroke-width="1" fill="none" fill-rule="evenodd">
        <path d="M-1.13686838e-13,48.546875 C-1.13686838e-13,48.546875 96.1000321,0.855604628 252.672417,0.855604628 C407.442149,0.855604628 538.287926,121.76038 650.406728,121.76038 C829.737503,121.76038 1093.84113,32.4616631 1219.35431,32.4616631 C1285.26015,32.4616631 1358.80871,44.1744033 1440,67.5998836 L1440,151 L-1.13686838e-13,151 C-1.13686838e-13,82.6979167 -1.13686838e-13,48.546875 -1.13686838e-13,48.546875 Z" id="Rectangle-Copy-5" fill="#269732"></path>
        <path d="M1.13686838e-13,81 C130,58.6411087 240.803237,47.4616631 332.409712,47.4616631 C651.448228,47.4616631 680.386379,120.94016 902.25707,120.94016 C1134.94858,120.94016 1249.6044,47.4616631 1440,47.4616631 C1440,47.4616631 1440,81.9744421 1440,151 L1.13686838e-13,151 L1.13686838e-13,81 Z" id="Rectangle-Copy-6" fill="#005828"></path>
    </g>
</svg>
