<?xml version="1.0" encoding="UTF-8"?>
<svg width="167px" height="56px" viewBox="0 0 167 56" version="1.1" xmlns="http://www.w3.org/2000/svg" xmlns:xlink="http://www.w3.org/1999/xlink">
    <!-- Generator: Sketch 63.1 (92452) - https://sketch.com -->
    <title>UpperValleyRunningClub</title>
    <desc>Created with Sketch.</desc>
    <g id="Page-1" stroke="none" strokeWidth="1" fill="none" fillRule="evenodd">
        <path d="M7.37653736,18.3164525 C8.75639332,18.3164525 9.99420529,18.0364229 11.0899733,17.4763637 C12.1857412,16.9163045 13.0501804,16.0802742 13.6832908,14.9682726 C14.3164012,13.856271 14.6329564,12.4885903 14.6329564,10.8652303 L14.6329564,10.8652303 L14.6329564,0.930267402 L10.4690381,0.930267402 L10.4690381,10.8652303 C10.4690381,12.0015823 10.2133589,12.8700799 9.70200049,13.470723 C9.19064211,14.0713662 8.44795493,14.3716878 7.47393896,14.3716878 C6.49992299,14.3716878 5.75723581,14.0713662 5.24587742,13.470723 C4.73451904,12.8700799 4.47883984,12.0015823 4.47883984,10.8652303 L4.47883984,10.8652303 L4.47883984,0.930267402 L0.339271962,0.930267402 L0.339271962,10.8652303 C0.339271962,12.4885903 0.639593553,13.8603294 1.24023674,14.9804478 C1.84087992,16.1005662 2.66879349,16.9365965 3.72397746,17.4885389 C4.77916143,18.0404813 5.9966814,18.3164525 7.37653736,18.3164525 Z M21.5728202,24.6232059 L21.5728202,15.6866094 C21.9137257,16.4982894 22.4575513,17.1395165 23.2042969,17.6102909 C23.9510425,18.0810653 24.8438905,18.3164525 25.8828408,18.3164525 C27.0029592,18.3164525 28.005384,18.0364229 28.8901151,17.4763637 C29.7748463,16.9163045 30.4728911,16.108683 30.9842495,15.053499 C31.4956079,13.998315 31.7512871,12.7645615 31.7512871,11.3522383 C31.7512871,9.92368154 31.4956079,8.68586958 30.9842495,7.63880241 C30.4728911,6.59173524 29.7748463,5.78817206 28.8901151,5.22811288 C28.005384,4.6680537 27.0029592,4.3880241 25.8828408,4.3880241 C24.8438905,4.3880241 23.9510425,4.6234113 23.2042969,5.09418568 C22.4575513,5.56496007 21.9137257,6.20618725 21.5728202,7.01786723 L21.5728202,7.01786723 L21.5728202,4.5584769 L17.4089019,4.5584769 L17.4089019,24.6232059 L21.5728202,24.6232059 Z M24.5435689,14.6638926 C23.6669545,14.6638926 22.9486177,14.363571 22.3885585,13.7629278 C21.8284993,13.1622847 21.5484698,12.3587215 21.5484698,11.3522383 C21.5484698,10.3295215 21.8284993,9.52189996 22.3885585,8.92937357 C22.9486177,8.33684719 23.6669545,8.040584 24.5435689,8.040584 C25.4364168,8.040584 26.1547536,8.33278879 26.6985792,8.91719837 C27.2424048,9.50160796 27.5143176,10.3132879 27.5143176,11.3522383 C27.5143176,12.3911887 27.2424048,13.2028687 26.6985792,13.7872782 C26.1547536,14.3716878 25.4364168,14.6638926 24.5435689,14.6638926 Z M38.0823909,24.6232059 L38.0823909,15.6866094 C38.4232965,16.4982894 38.9671221,17.1395165 39.7138676,17.6102909 C40.4606132,18.0810653 41.3534612,18.3164525 42.3924116,18.3164525 C43.5125299,18.3164525 44.5149547,18.0364229 45.3996859,17.4763637 C46.284417,16.9163045 46.9824618,16.108683 47.4938202,15.053499 C48.0051786,13.998315 48.2608578,12.7645615 48.2608578,11.3522383 C48.2608578,9.92368154 48.0051786,8.68586958 47.4938202,7.63880241 C46.9824618,6.59173524 46.284417,5.78817206 45.3996859,5.22811288 C44.5149547,4.6680537 43.5125299,4.3880241 42.3924116,4.3880241 C41.3534612,4.3880241 40.4606132,4.6234113 39.7138676,5.09418568 C38.9671221,5.56496007 38.4232965,6.20618725 38.0823909,7.01786723 L38.0823909,7.01786723 L38.0823909,4.5584769 L33.9184726,4.5584769 L33.9184726,24.6232059 L38.0823909,24.6232059 Z M41.0531396,14.6638926 C40.1765252,14.6638926 39.4581884,14.363571 38.8981293,13.7629278 C38.3380701,13.1622847 38.0580405,12.3587215 38.0580405,11.3522383 C38.0580405,10.3295215 38.3380701,9.52189996 38.8981293,8.92937357 C39.4581884,8.33684719 40.1765252,8.040584 41.0531396,8.040584 C41.9459876,8.040584 42.6643244,8.33278879 43.2081499,8.91719837 C43.7519755,9.50160796 44.0238883,10.3132879 44.0238883,11.3522383 C44.0238883,12.3911887 43.7519755,13.2028687 43.2081499,13.7872782 C42.6643244,14.3716878 41.9459876,14.6638926 41.0531396,14.6638926 Z M56.564344,18.3164525 C57.7006959,18.3164525 58.7315295,18.1013573 59.6568447,17.6711669 C60.5821598,17.2409765 61.345139,16.6484502 61.9457822,15.8935878 C62.5464254,15.1387254 62.9360318,14.282403 63.1146014,13.3246206 L63.1146014,13.3246206 L58.7071791,13.3246206 C58.5773103,13.8116286 58.3094559,14.2093518 57.9036159,14.5177902 C57.4977759,14.8262286 56.9864175,14.9804478 56.3695408,14.9804478 C55.6390288,14.9804478 55.0383856,14.7572358 54.5676112,14.3108118 C54.0968368,13.8643878 53.8370992,13.1298175 53.7883984,12.1071007 L53.7883984,12.1071007 L63.212003,12.1071007 C63.293171,11.7012607 63.333755,11.3278879 63.333755,10.9869823 C63.333755,9.68829435 63.0537254,8.53976718 62.4936662,7.54140081 C61.933607,6.54303444 61.142219,5.76788006 60.1195023,5.21593768 C59.0967855,4.6639953 57.9117327,4.3880241 56.564344,4.3880241 C55.2331888,4.3880241 54.048136,4.6680537 53.0091857,5.22811288 C51.9702353,5.78817206 51.1626137,6.59173524 50.5863209,7.63880241 C50.0100281,8.68586958 49.7218817,9.92368154 49.7218817,11.3522383 C49.7218817,12.7645615 50.0140865,13.998315 50.5984961,15.053499 C51.1829057,16.108683 51.9905273,16.9163045 53.0213609,17.4763637 C54.0521944,18.0364229 55.2331888,18.3164525 56.564344,18.3164525 Z M59.1211359,10.3538719 L53.8127488,10.3538719 C53.8776832,9.47725756 54.1617712,8.81167998 54.6650128,8.35713919 C55.1682544,7.9025984 55.8013648,7.67532801 56.564344,7.67532801 C57.2948559,7.67532801 57.9076743,7.89854 58.4027991,8.34496399 C58.8979239,8.79138798 59.1373695,9.46102396 59.1211359,10.3538719 L59.1211359,10.3538719 Z M69.6648588,18.1459997 L69.6648588,11.9609983 C69.6648588,10.8408799 69.9692388,10.0454335 70.5779988,9.57465915 C71.1867587,9.10388477 72.0430811,8.86849758 73.1469659,8.86849758 L73.1469659,8.86849758 L74.3401354,8.86849758 L74.3401354,4.4123745 C73.3823531,4.4123745 72.4935635,4.6558785 71.6737667,5.14288648 C70.8539699,5.62989447 70.184334,6.28735525 69.6648588,7.11526883 L69.6648588,7.11526883 L69.6648588,4.5584769 L65.5009405,4.5584769 L65.5009405,18.1459997 L69.6648588,18.1459997 Z M91.0688598,18.1459997 L97.059058,0.930267402 L92.6029349,0.930267402 L88.3903158,13.8846798 L84.1776968,0.930267402 L79.7215737,0.930267402 L85.6874215,18.1459997 L91.0688598,18.1459997 Z M103.828469,18.3164525 C104.867419,18.3164525 105.760267,18.0810653 106.507013,17.6102909 C107.253759,17.1395165 107.805701,16.4982894 108.16284,15.6866094 L108.16284,15.6866094 L108.16284,18.1459997 L112.302408,18.1459997 L112.302408,4.5584769 L108.16284,4.5584769 L108.16284,7.01786723 C107.805701,6.20618725 107.253759,5.56496007 106.507013,5.09418568 C105.760267,4.6234113 104.867419,4.3880241 103.828469,4.3880241 C102.708351,4.3880241 101.705926,4.6680537 100.821195,5.22811288 C99.9364635,5.78817206 99.2384187,6.59173524 98.7270603,7.63880241 C98.215702,8.68586958 97.9600228,9.92368154 97.9600228,11.3522383 C97.9600228,12.7645615 98.215702,13.998315 98.7270603,15.053499 C99.2384187,16.108683 99.9364635,16.9163045 100.821195,17.4763637 C101.705926,18.0364229 102.708351,18.3164525 103.828469,18.3164525 Z M105.167741,14.6638926 C104.274893,14.6638926 103.556556,14.3716878 103.012731,13.7872782 C102.468905,13.2028687 102.196992,12.3911887 102.196992,11.3522383 C102.196992,10.3132879 102.468905,9.50160796 103.012731,8.91719837 C103.556556,8.33278879 104.274893,8.040584 105.167741,8.040584 C106.044355,8.040584 106.762692,8.33684719 107.322751,8.92937357 C107.88281,9.52189996 108.16284,10.3295215 108.16284,11.3522383 C108.16284,12.3587215 107.88281,13.1622847 107.322751,13.7629278 C106.762692,14.363571 106.044355,14.6638926 105.167741,14.6638926 Z M119.339673,18.1459997 L119.339673,0.126704225 L115.175755,0.126704225 L115.175755,18.1459997 L119.339673,18.1459997 Z M126.376939,18.1459997 L126.376939,0.126704225 L122.21302,0.126704225 L122.21302,18.1459997 L126.376939,18.1459997 Z M135.386586,18.3164525 C136.522938,18.3164525 137.553772,18.1013573 138.479087,17.6711669 C139.404402,17.2409765 140.167382,16.6484502 140.768025,15.8935878 C141.368668,15.1387254 141.758274,14.282403 141.936844,13.3246206 L141.936844,13.3246206 L137.529422,13.3246206 C137.399553,13.8116286 137.131698,14.2093518 136.725858,14.5177902 C136.320018,14.8262286 135.80866,14.9804478 135.191783,14.9804478 C134.461271,14.9804478 133.860628,14.7572358 133.389854,14.3108118 C132.919079,13.8643878 132.659342,13.1298175 132.610641,12.1071007 L132.610641,12.1071007 L142.034246,12.1071007 C142.115414,11.7012607 142.155998,11.3278879 142.155998,10.9869823 C142.155998,9.68829435 141.875968,8.53976718 141.315909,7.54140081 C140.75585,6.54303444 139.964462,5.76788006 138.941745,5.21593768 C137.919028,4.6639953 136.733975,4.3880241 135.386586,4.3880241 C134.055431,4.3880241 132.870379,4.6680537 131.831428,5.22811288 C130.792478,5.78817206 129.984856,6.59173524 129.408563,7.63880241 C128.832271,8.68586958 128.544124,9.92368154 128.544124,11.3522383 C128.544124,12.7645615 128.836329,13.998315 129.420739,15.053499 C130.005148,16.108683 130.81277,16.9163045 131.843603,17.4763637 C132.874437,18.0364229 134.055431,18.3164525 135.386586,18.3164525 Z M137.943378,10.3538719 L132.634991,10.3538719 C132.699926,9.47725756 132.984014,8.81167998 133.487255,8.35713919 C133.990497,7.9025984 134.623607,7.67532801 135.386586,7.67532801 C136.117098,7.67532801 136.729917,7.89854 137.225042,8.34496399 C137.720166,8.79138798 137.959612,9.46102396 137.943378,10.3538719 L137.943378,10.3538719 Z M149.899424,24.6232059 L158.373363,4.5584769 L153.771138,4.5584769 L150.727338,12.8863135 L147.464385,4.5584769 L142.813458,4.5584769 L148.511452,17.6346413 L145.321549,24.6232059 L149.899424,24.6232059 Z M4.60059184,48.5839988 L4.60059184,42.0824422 L5.55025741,42.0824422 L9.27586851,48.5839988 L13.878094,48.5839988 L9.78722689,41.8145878 C11.1021485,41.4899158 12.1045732,40.8892727 12.7945012,40.0126583 C13.4844292,39.1360439 13.8293932,38.0727431 13.8293932,36.822756 C13.8293932,35.767572 13.594006,34.8300816 13.1232316,34.0102849 C12.6524572,33.1904881 11.9462956,32.5452025 11.0047469,32.0744281 C10.0631981,31.6036537 8.91061252,31.3682665 7.54699016,31.3682665 L7.54699016,31.3682665 L0.436673559,31.3682665 L0.436673559,48.5839988 L4.60059184,48.5839988 Z M7.18173417,39.2334455 L4.60059184,39.2334455 L4.60059184,34.874724 L7.18173417,34.874724 C7.99341414,34.874724 8.59811573,35.0695272 8.99583891,35.4591336 C9.3935621,35.84874 9.5924237,36.3844488 9.5924237,37.06626 C9.5924237,37.7805383 9.3976205,38.3203055 9.00801411,38.6855615 C8.61840772,39.0508175 8.00964774,39.2334455 7.18173417,39.2334455 L7.18173417,39.2334455 Z M20.8179578,48.7301012 C21.8406745,48.7301012 22.7375809,48.494714 23.5086769,48.0239397 C24.2797729,47.5531653 24.8601241,46.9200549 25.2497304,46.1246085 L25.2497304,46.1246085 L25.2497304,48.5839988 L29.4379991,48.5839988 L29.4379991,34.996476 L25.2497304,34.996476 L25.2497304,42.2041942 C25.2497304,43.1944438 25.0062265,43.957423 24.5192185,44.4931318 C24.0322105,45.0288405 23.3666329,45.2966949 22.5224857,45.2966949 C21.7108057,45.2966949 21.0655202,45.0410157 20.586629,44.5296574 C20.1077378,44.018299 19.8682922,43.2999622 19.8682922,42.374647 L19.8682922,42.374647 L19.8682922,34.996476 L15.7287243,34.996476 L15.7287243,42.8860054 C15.7287243,44.7041685 16.1873235,46.1327253 17.1045219,47.1716757 C18.0217203,48.210626 19.2595322,48.7301012 20.8179578,48.7301012 Z M36.4752645,48.5839988 L36.4752645,41.3762806 C36.4752645,40.3860311 36.7228269,39.6230519 37.2179517,39.0873431 C37.7130765,38.5516343 38.3827125,38.2837799 39.2268596,38.2837799 C40.022306,38.2837799 40.6594748,38.5394591 41.138366,39.0508175 C41.6172572,39.5621759 41.8567028,40.2723959 41.8567028,41.1814775 L41.8567028,41.1814775 L41.8567028,48.5839988 L46.0206211,48.5839988 L46.0206211,40.6944695 C46.0206211,38.8763063 45.5620219,37.4477496 44.6448235,36.4087992 C43.7276251,35.3698488 42.4898132,34.8503736 40.9313876,34.8503736 C39.8924372,34.8503736 38.9874141,35.0857608 38.2163181,35.5565352 C37.4452221,36.0273096 36.8648709,36.6685368 36.4752645,37.4802168 L36.4752645,37.4802168 L36.4752645,34.996476 L32.3113462,34.996476 L32.3113462,48.5839988 L36.4752645,48.5839988 Z M52.9361345,48.5839988 L52.9361345,41.3762806 C52.9361345,40.3860311 53.1836968,39.6230519 53.6788216,39.0873431 C54.1739464,38.5516343 54.8435824,38.2837799 55.6877296,38.2837799 C56.483176,38.2837799 57.1203447,38.5394591 57.5992359,39.0508175 C58.0781271,39.5621759 58.3175727,40.2723959 58.3175727,41.1814775 L58.3175727,41.1814775 L58.3175727,48.5839988 L62.481491,48.5839988 L62.481491,40.6944695 C62.481491,38.8763063 62.0228918,37.4477496 61.1056934,36.4087992 C60.188495,35.3698488 58.9506831,34.8503736 57.3922575,34.8503736 C56.3533072,34.8503736 55.448284,35.0857608 54.677188,35.5565352 C53.906092,36.0273096 53.3257408,36.6685368 52.9361345,37.4802168 L52.9361345,37.4802168 L52.9361345,34.996476 L48.7722162,34.996476 L48.7722162,48.5839988 L52.9361345,48.5839988 Z M67.3272204,33.3406489 C68.073966,33.3406489 68.6746092,33.1336705 69.12915,32.7197137 C69.5836908,32.3057569 69.8109612,31.7903401 69.8109612,31.1734633 C69.8109612,30.540353 69.5836908,30.0168194 69.12915,29.6028626 C68.6746092,29.1889058 68.073966,28.9819274 67.3272204,28.9819274 C66.5804749,28.9819274 65.9798317,29.1889058 65.5252909,29.6028626 C65.0707501,30.0168194 64.8434797,30.540353 64.8434797,31.1734633 C64.8434797,31.7903401 65.0707501,32.3057569 65.5252909,32.7197137 C65.9798317,33.1336705 66.5804749,33.3406489 67.3272204,33.3406489 Z M69.3970044,48.5839988 L69.3970044,34.996476 L65.2330861,34.996476 L65.2330861,48.5839988 L69.3970044,48.5839988 Z M76.4342698,48.5839988 L76.4342698,41.3762806 C76.4342698,40.3860311 76.6818322,39.6230519 77.176957,39.0873431 C77.6720817,38.5516343 78.3417177,38.2837799 79.1858649,38.2837799 C79.9813113,38.2837799 80.6184801,38.5394591 81.0973713,39.0508175 C81.5762624,39.5621759 81.815708,40.2723959 81.815708,41.1814775 L81.815708,41.1814775 L81.815708,48.5839988 L85.9796263,48.5839988 L85.9796263,40.6944695 C85.9796263,38.8763063 85.5210271,37.4477496 84.6038287,36.4087992 C83.6866304,35.3698488 82.4488184,34.8503736 80.8903929,34.8503736 C79.8514425,34.8503736 78.9464193,35.0857608 78.1753233,35.5565352 C77.4042274,36.0273096 76.8238762,36.6685368 76.4342698,37.4802168 L76.4342698,37.4802168 L76.4342698,34.996476 L72.2703515,34.996476 L72.2703515,48.5839988 L76.4342698,48.5839988 Z M95.6467348,55.2560082 C97.140226,55.2560082 98.3902132,54.9556867 99.3966963,54.3550435 C100.403179,53.7544003 101.149925,52.9467787 101.636933,51.9321787 C102.123941,50.9175788 102.367445,49.7771684 102.367445,48.5109476 L102.367445,48.5109476 L102.367445,34.996476 L98.2278772,34.996476 L98.2278772,37.4558664 C97.870738,36.6441864 97.3187956,36.0029592 96.57205,35.5321848 C95.8253044,35.0614104 94.9324565,34.8260232 93.8935061,34.8260232 C92.7733877,34.8260232 91.7709629,35.1060528 90.8862318,35.666112 C90.0015006,36.2261712 89.3034558,37.0297344 88.7920974,38.0768015 C88.280739,39.1238687 88.0250599,40.3616807 88.0250599,41.7902374 C88.0250599,43.2025606 88.280739,44.4363142 88.7920974,45.4914981 C89.3034558,46.5466821 90.0015006,47.3543037 90.8862318,47.9143629 C91.7709629,48.474422 92.7733877,48.7544516 93.8935061,48.7544516 C94.9324565,48.7544516 95.8253044,48.5190644 96.57205,48.0482901 C97.3187956,47.5775157 97.870738,46.9362885 98.2278772,46.1246085 L98.2278772,46.1246085 L98.2278772,48.5109476 C98.2278772,49.5985988 97.9640812,50.3899868 97.4364892,50.8851116 C96.9088972,51.3802364 96.2149108,51.6277988 95.35453,51.6277988 C94.6077845,51.6277988 94.0030829,51.4735796 93.5404253,51.1651412 C93.0777677,50.8567028 92.7815045,50.4265124 92.6516357,49.87457 L92.6516357,49.87457 L88.5364182,49.87457 C88.7799222,51.5303972 89.5144926,52.8412603 90.7401294,53.8071595 C91.9657661,54.7730587 93.6013013,55.2560082 95.6467348,55.2560082 Z M95.232778,45.1018917 C94.3399301,45.1018917 93.6215933,44.8096869 93.0777677,44.2252774 C92.5339421,43.6408678 92.2620293,42.8291878 92.2620293,41.7902374 C92.2620293,40.7512871 92.5339421,39.9396071 93.0777677,39.3551975 C93.6215933,38.7707879 94.3399301,38.4785831 95.232778,38.4785831 C96.1093924,38.4785831 96.8277292,38.7748463 97.3877884,39.3673727 C97.9478476,39.9598991 98.2278772,40.7675207 98.2278772,41.7902374 C98.2278772,42.7967206 97.9478476,43.6002838 97.3877884,44.200927 C96.8277292,44.8015701 96.1093924,45.1018917 95.232778,45.1018917 Z M117.976051,48.7301012 C120.167587,48.7301012 121.981692,48.1497501 123.418365,46.9890477 C124.855039,45.8283453 125.784412,44.2739782 126.206486,42.3259462 L126.206486,42.3259462 L121.799064,42.3259462 C121.474392,43.105159 120.975209,43.7220358 120.301514,44.1765766 C119.62782,44.6311174 118.828315,44.8583877 117.903,44.8583877 C116.68548,44.8583877 115.703347,44.4160222 114.956601,43.531291 C114.209856,42.6465598 113.836483,41.4574486 113.836483,39.9639575 C113.836483,38.4704663 114.209856,37.2772968 114.956601,36.3844488 C115.703347,35.4916008 116.68548,35.0451768 117.903,35.0451768 C118.828315,35.0451768 119.62782,35.2724472 120.301514,35.726988 C120.975209,36.1815288 121.474392,36.8065224 121.799064,37.6019688 L121.799064,37.6019688 L126.206486,37.6019688 C125.784412,35.6377032 124.855039,34.0792777 123.418365,32.9266921 C121.981692,31.7741065 120.167587,31.1978137 117.976051,31.1978137 C116.30399,31.1978137 114.834849,31.5671281 113.568629,32.3057569 C112.302408,33.0443857 111.324334,34.0792777 110.634406,35.4104328 C109.944478,36.741588 109.599514,38.2594295 109.599514,39.9639575 C109.599514,41.6684854 109.944478,43.186327 110.634406,44.5174822 C111.324334,45.8486373 112.302408,46.8835293 113.568629,47.6221581 C114.834849,48.3607868 116.30399,48.7301012 117.976051,48.7301012 Z M132.708043,48.5839988 L132.708043,30.5647034 L128.544124,30.5647034 L128.544124,48.5839988 L132.708043,48.5839988 Z M140.47582,48.7301012 C141.498537,48.7301012 142.395443,48.494714 143.166539,48.0239397 C143.937635,47.5531653 144.517986,46.9200549 144.907593,46.1246085 L144.907593,46.1246085 L144.907593,48.5839988 L149.095861,48.5839988 L149.095861,34.996476 L144.907593,34.996476 L144.907593,42.2041942 C144.907593,43.1944438 144.664089,43.957423 144.177081,44.4931318 C143.690073,45.0288405 143.024495,45.2966949 142.180348,45.2966949 C141.368668,45.2966949 140.723382,45.0410157 140.244491,44.5296574 C139.7656,44.018299 139.526154,43.2999622 139.526154,42.374647 L139.526154,42.374647 L139.526154,34.996476 L135.386586,34.996476 L135.386586,42.8860054 C135.386586,44.7041685 135.845186,46.1327253 136.762384,47.1716757 C137.679582,48.210626 138.917394,48.7301012 140.47582,48.7301012 Z M160.443147,48.7544516 C161.563266,48.7544516 162.565691,48.474422 163.450422,47.9143629 C164.335153,47.3543037 165.033198,46.5466821 165.544556,45.4914981 C166.055914,44.4363142 166.311594,43.2025606 166.311594,41.7902374 C166.311594,40.3616807 166.055914,39.1238687 165.544556,38.0768015 C165.033198,37.0297344 164.335153,36.2261712 163.450422,35.666112 C162.565691,35.1060528 161.563266,34.8260232 160.443147,34.8260232 C159.404197,34.8260232 158.511349,35.0614104 157.764603,35.5321848 C157.017858,36.0029592 156.474032,36.6441864 156.133127,37.4558664 L156.133127,37.4558664 L156.133127,30.5647034 L151.969208,30.5647034 L151.969208,48.5839988 L156.133127,48.5839988 L156.133127,46.1246085 C156.474032,46.9362885 157.017858,47.5775157 157.764603,48.0482901 C158.511349,48.5190644 159.404197,48.7544516 160.443147,48.7544516 Z M159.103875,45.1018917 C158.227261,45.1018917 157.508924,44.8015701 156.948865,44.200927 C156.388806,43.6002838 156.108776,42.7967206 156.108776,41.7902374 C156.108776,40.7675207 156.388806,39.9598991 156.948865,39.3673727 C157.508924,38.7748463 158.227261,38.4785831 159.103875,38.4785831 C159.996723,38.4785831 160.71506,38.7707879 161.258886,39.3551975 C161.802711,39.9396071 162.074624,40.7512871 162.074624,41.7902374 C162.074624,42.8291878 161.802711,43.6408678 161.258886,44.2252774 C160.71506,44.8096869 159.996723,45.1018917 159.103875,45.1018917 Z" id="UpperValleyRunningClub" fill="#000000" fillRule="nonzero"></path>
    </g>
</svg>
